<svg id="visual" viewBox="0 0 960 540" width="960" height="540" xmlns="http://www.w3.org/2000/svg" xmlns:xlink="http://www.w3.org/1999/xlink" version="1.1"><rect x="0" y="0" width="960" height="540" fill="#001220"></rect><defs><linearGradient id="grad1_0" x1="43.8%" y1="100%" x2="100%" y2="0%"><stop offset="14.444444444444446%" stop-color="#fbae3c" stop-opacity="1"></stop><stop offset="85.55555555555554%" stop-color="#fbae3c" stop-opacity="1"></stop></linearGradient></defs><defs><linearGradient id="grad1_1" x1="43.8%" y1="100%" x2="100%" y2="0%"><stop offset="14.444444444444446%" stop-color="#fbae3c" stop-opacity="1"></stop><stop offset="85.55555555555554%" stop-color="#eb7458" stop-opacity="1"></stop></linearGradient></defs><defs><linearGradient id="grad1_2" x1="43.8%" y1="100%" x2="100%" y2="0%"><stop offset="14.444444444444446%" stop-color="#b84e6c" stop-opacity="1"></stop><stop offset="85.55555555555554%" stop-color="#eb7458" stop-opacity="1"></stop></linearGradient></defs><defs><linearGradient id="grad1_3" x1="43.8%" y1="100%" x2="100%" y2="0%"><stop offset="14.444444444444446%" stop-color="#b84e6c" stop-opacity="1"></stop><stop offset="85.55555555555554%" stop-color="#713c69" stop-opacity="1"></stop></linearGradient></defs><defs><linearGradient id="grad1_4" x1="43.8%" y1="100%" x2="100%" y2="0%"><stop offset="14.444444444444446%" stop-color="#2d2b4c" stop-opacity="1"></stop><stop offset="85.55555555555554%" stop-color="#713c69" stop-opacity="1"></stop></linearGradient></defs><defs><linearGradient id="grad1_5" x1="43.8%" y1="100%" x2="100%" y2="0%"><stop offset="14.444444444444446%" stop-color="#2d2b4c" stop-opacity="1"></stop><stop offset="85.55555555555554%" stop-color="#001220" stop-opacity="1"></stop></linearGradient></defs><defs><linearGradient id="grad2_0" x1="0%" y1="100%" x2="56.3%" y2="0%"><stop offset="14.444444444444446%" stop-color="#fbae3c" stop-opacity="1"></stop><stop offset="85.55555555555554%" stop-color="#fbae3c" stop-opacity="1"></stop></linearGradient></defs><defs><linearGradient id="grad2_1" x1="0%" y1="100%" x2="56.3%" y2="0%"><stop offset="14.444444444444446%" stop-color="#eb7458" stop-opacity="1"></stop><stop offset="85.55555555555554%" stop-color="#fbae3c" stop-opacity="1"></stop></linearGradient></defs><defs><linearGradient id="grad2_2" x1="0%" y1="100%" x2="56.3%" y2="0%"><stop offset="14.444444444444446%" stop-color="#eb7458" stop-opacity="1"></stop><stop offset="85.55555555555554%" stop-color="#b84e6c" stop-opacity="1"></stop></linearGradient></defs><defs><linearGradient id="grad2_3" x1="0%" y1="100%" x2="56.3%" y2="0%"><stop offset="14.444444444444446%" stop-color="#713c69" stop-opacity="1"></stop><stop offset="85.55555555555554%" stop-color="#b84e6c" stop-opacity="1"></stop></linearGradient></defs><defs><linearGradient id="grad2_4" x1="0%" y1="100%" x2="56.3%" y2="0%"><stop offset="14.444444444444446%" stop-color="#713c69" stop-opacity="1"></stop><stop offset="85.55555555555554%" stop-color="#2d2b4c" stop-opacity="1"></stop></linearGradient></defs><defs><linearGradient id="grad2_5" x1="0%" y1="100%" x2="56.3%" y2="0%"><stop offset="14.444444444444446%" stop-color="#001220" stop-opacity="1"></stop><stop offset="85.55555555555554%" stop-color="#2d2b4c" stop-opacity="1"></stop></linearGradient></defs><g transform="translate(960, 540)"><path d="M-351 0C-342.5 -62.5 -333.9 -125 -304 -175.5C-274 -226 -222.7 -264.6 -168.5 -291.9C-114.3 -319.1 -57.1 -335.1 0 -351L0 0Z" fill="#131f37"></path><path d="M-292.5 0C-285.4 -52.1 -278.3 -104.1 -253.3 -146.3C-228.4 -188.4 -185.6 -220.5 -140.4 -243.2C-95.2 -265.9 -47.6 -279.2 0 -292.5L0 0Z" fill="#4d345e"></path><path d="M-234 0C-228.3 -41.7 -222.6 -83.3 -202.6 -117C-182.7 -150.7 -148.5 -176.4 -112.3 -194.6C-76.2 -212.7 -38.1 -223.4 0 -234L0 0Z" fill="#96446e"></path><path d="M-175.5 0C-171.2 -31.2 -167 -62.5 -152 -87.8C-137 -113 -111.4 -132.3 -84.3 -145.9C-57.1 -159.6 -28.6 -167.5 0 -175.5L0 0Z" fill="#d55e64"></path><path d="M-117 0C-114.2 -20.8 -111.3 -41.7 -101.3 -58.5C-91.3 -75.3 -74.2 -88.2 -56.2 -97.3C-38.1 -106.4 -19 -111.7 0 -117L0 0Z" fill="#f88f4a"></path><path d="M-58.5 0C-57.1 -10.4 -55.7 -20.8 -50.7 -29.3C-45.7 -37.7 -37.1 -44.1 -28.1 -48.6C-19 -53.2 -9.5 -55.8 0 -58.5L0 0Z" fill="#fbae3c"></path></g><g transform="translate(0, 0)"><path d="M351 0C342.1 61.8 333.1 123.6 304 175.5C274.8 227.4 225.5 269.4 171.5 297C117.5 324.6 58.7 337.8 0 351L0 0Z" fill="#131f37"></path><path d="M292.5 0C285 51.5 277.6 103 253.3 146.2C229 189.5 187.9 224.5 142.9 247.5C97.9 270.5 48.9 281.5 0 292.5L0 0Z" fill="#4d345e"></path><path d="M234 0C228 41.2 222.1 82.4 202.6 117C183.2 151.6 150.4 179.6 114.3 198C78.3 216.4 39.2 225.2 0 234L0 0Z" fill="#96446e"></path><path d="M175.5 0C171 30.9 166.6 61.8 152 87.7C137.4 113.7 112.8 134.7 85.8 148.5C58.7 162.3 29.4 168.9 0 175.5L0 0Z" fill="#d55e64"></path><path d="M117 0C114 20.6 111 41.2 101.3 58.5C91.6 75.8 75.2 89.8 57.2 99C39.2 108.2 19.6 112.6 0 117L0 0Z" fill="#f88f4a"></path><path d="M58.5 0C57 10.3 55.5 20.6 50.7 29.2C45.8 37.9 37.6 44.9 28.6 49.5C19.6 54.1 9.8 56.3 0 58.5L0 0Z" fill="#fbae3c"></path></g></svg>