<svg id="visual" viewBox="0 0 960 540" width="960" height="540" xmlns="http://www.w3.org/2000/svg" xmlns:xlink="http://www.w3.org/1999/xlink" version="1.1"><rect width="960" height="540" fill="#ffffff"></rect><g><g transform="translate(859 23)"><path d="M0 -36.6L31.7 -18.3L31.7 18.3L0 36.6L-31.7 18.3L-31.7 -18.3Z" fill="none" stroke="#304868" stroke-width="5"></path></g><g transform="translate(548 277)"><path d="M0 -30L26 -15L26 15L0 30L-26 15L-26 -15Z" fill="none" stroke="#304868" stroke-width="5"></path></g><g transform="translate(159 300)"><path d="M0 -32L27.7 -16L27.7 16L0 32L-27.7 16L-27.7 -16Z" fill="none" stroke="#304868" stroke-width="5"></path></g><g transform="translate(471 316)"><path d="M0 -27L23.4 -13.5L23.4 13.5L0 27L-23.4 13.5L-23.4 -13.5Z" stroke="#304868" fill="none" stroke-width="5"></path></g><g transform="translate(876 354)"><path d="M0 -24L20.8 -12L20.8 12L0 24L-20.8 12L-20.8 -12Z" stroke="#304868" fill="none" stroke-width="5"></path></g><g transform="translate(756 531)"><path d="M0 -32L27.7 -16L27.7 16L0 32L-27.7 16L-27.7 -16Z" stroke="#304868" fill="none" stroke-width="5"></path></g><g transform="translate(866 226)"><path d="M0 -28L24.2 -14L24.2 14L0 28L-24.2 14L-24.2 -14Z" stroke="#304868" fill="none" stroke-width="5"></path></g><g transform="translate(487 451)"><path d="M0 -29L25.1 -14.5L25.1 14.5L0 29L-25.1 14.5L-25.1 -14.5Z" stroke="#304868" fill="none" stroke-width="5"></path></g><g transform="translate(755 411)"><path d="M0 -34L29.4 -17L29.4 17L0 34L-29.4 17L-29.4 -17Z" stroke="#304868" fill="none" stroke-width="5"></path></g><g transform="translate(443 46)"><path d="M0 -21L18.2 -10.5L18.2 10.5L0 21L-18.2 10.5L-18.2 -10.5Z" stroke="#304868" fill="none" stroke-width="5"></path></g><g transform="translate(218 534)"><path d="M0 -30L26 -15L26 15L0 30L-26 15L-26 -15Z" stroke="#304868" fill="none" stroke-width="5"></path></g><g transform="translate(306 311)"><path d="M0 -28L24.2 -14L24.2 14L0 28L-24.2 14L-24.2 -14Z" stroke="#304868" fill="none" stroke-width="5"></path></g><g transform="translate(794 132)"><path d="M0 -33L28.6 -16.5L28.6 16.5L0 33L-28.6 16.5L-28.6 -16.5Z" stroke="#304868" fill="none" stroke-width="5"></path></g><g transform="translate(333 6)"><path d="M0 -23L19.9 -11.5L19.9 11.5L0 23L-19.9 11.5L-19.9 -11.5Z" stroke="#304868" fill="none" stroke-width="5"></path></g><g transform="translate(677 372)"><path d="M0 -23L19.9 -11.5L19.9 11.5L0 23L-19.9 11.5L-19.9 -11.5Z" stroke="#304868" fill="none" stroke-width="5"></path></g><g transform="translate(25 34)"><path d="M0 -20L17.3 -10L17.3 10L0 20L-17.3 10L-17.3 -10Z" stroke="#304868" fill="none" stroke-width="5"></path></g><g transform="translate(228 21)"><path d="M0 -33L28.6 -16.5L28.6 16.5L0 33L-28.6 16.5L-28.6 -16.5Z" stroke="#304868" fill="none" stroke-width="5"></path></g><g transform="translate(123 109)"><path d="M0 -26L22.5 -13L22.5 13L0 26L-22.5 13L-22.5 -13Z" stroke="#304868" fill="none" stroke-width="5"></path></g><g transform="translate(956 113)"><path d="M0 -30L26 -15L26 15L0 30L-26 15L-26 -15Z" stroke="#304868" fill="none" stroke-width="5"></path></g><g transform="translate(371 348)"><path d="M0 -27L23.4 -13.5L23.4 13.5L0 27L-23.4 13.5L-23.4 -13.5Z" stroke="#304868" fill="none" stroke-width="5"></path></g><g transform="translate(366 206)"><path d="M0 -33L28.6 -16.5L28.6 16.5L0 33L-28.6 16.5L-28.6 -16.5Z" stroke="#304868" fill="none" stroke-width="5"></path></g><g transform="translate(80 393)"><path d="M0 -32L27.7 -16L27.7 16L0 32L-27.7 16L-27.7 -16Z" stroke="#304868" fill="none" stroke-width="5"></path></g><g transform="translate(627 142)"><path d="M0 -23L19.9 -11.5L19.9 11.5L0 23L-19.9 11.5L-19.9 -11.5Z" stroke="#304868" fill="none" stroke-width="5"></path></g><g transform="translate(620 445)"><path d="M0 -23L19.9 -11.5L19.9 11.5L0 23L-19.9 11.5L-19.9 -11.5Z" stroke="#304868" fill="none" stroke-width="5"></path></g><g transform="translate(374 86)"><path d="M0 -35L30.3 -17.5L30.3 17.5L0 35L-30.3 17.5L-30.3 -17.5Z" stroke="#304868" fill="none" stroke-width="5"></path></g><g transform="translate(21 521)"><path d="M0 -24L20.8 -12L20.8 12L0 24L-20.8 12L-20.8 -12Z" stroke="#304868" fill="none" stroke-width="5"></path></g><g transform="translate(392 422)"><path d="M0 -26L22.5 -13L22.5 13L0 26L-22.5 13L-22.5 -13Z" stroke="#304868" fill="none" stroke-width="5"></path></g><g transform="translate(779 308)"><path d="M0 -19L16.5 -9.5L16.5 9.5L0 19L-16.5 9.5L-16.5 -9.5Z" stroke="#304868" fill="none" stroke-width="5"></path></g><g transform="translate(190 382)"><path d="M0 -20L17.3 -10L17.3 10L0 20L-17.3 10L-17.3 -10Z" stroke="#304868" fill="none" stroke-width="5"></path></g><g transform="translate(296 173)"><path d="M0 -29L25.1 -14.5L25.1 14.5L0 29L-25.1 14.5L-25.1 -14.5Z" stroke="#304868" fill="none" stroke-width="5"></path></g><g transform="translate(956 296)"><path d="M0 -25L21.7 -12.5L21.7 12.5L0 25L-21.7 12.5L-21.7 -12.5Z" stroke="#304868" fill="none" stroke-width="5"></path></g><g transform="translate(222 194)"><path d="M0 -30L26 -15L26 15L0 30L-26 15L-26 -15Z" stroke="#304868" fill="none" stroke-width="5"></path></g><g transform="translate(280 430)"><path d="M0 -22L19.1 -11L19.1 11L0 22L-19.1 11L-19.1 -11Z" stroke="#304868" fill="none" stroke-width="5"></path></g><g transform="translate(404 271)"><path d="M0 -28L24.2 -14L24.2 14L0 28L-24.2 14L-24.2 -14Z" stroke="#304868" fill="none" stroke-width="5"></path></g><g transform="translate(679 34)"><path d="M0 -18L15.6 -9L15.6 9L0 18L-15.6 9L-15.6 -9Z" stroke="#304868" fill="none" stroke-width="5"></path></g><g transform="translate(882 537)"><path d="M0 -26L22.5 -13L22.5 13L0 26L-22.5 13L-22.5 -13Z" stroke="#304868" fill="none" stroke-width="5"></path></g><g transform="translate(751 48)"><path d="M0 -34L29.4 -17L29.4 17L0 34L-29.4 17L-29.4 -17Z" stroke="#304868" fill="none" stroke-width="5"></path></g><g transform="translate(610 64)"><path d="M0 -28L24.2 -14L24.2 14L0 28L-24.2 14L-24.2 -14Z" stroke="#304868" fill="none" stroke-width="5"></path></g><g transform="translate(174 467)"><path d="M0 -32L27.7 -16L27.7 16L0 32L-27.7 16L-27.7 -16Z" stroke="#304868" fill="none" stroke-width="5"></path></g><g transform="translate(27 211)"><path d="M0 -21L18.2 -10.5L18.2 10.5L0 21L-18.2 10.5L-18.2 -10.5Z" stroke="#304868" fill="none" stroke-width="5"></path></g><g transform="translate(689 228)"><path d="M0 -30L26 -15L26 15L0 30L-26 15L-26 -15Z" stroke="#304868" fill="none" stroke-width="5"></path></g><g transform="translate(895 454)"><path d="M0 -22L19.1 -11L19.1 11L0 22L-19.1 11L-19.1 -11Z" stroke="#304868" fill="none" stroke-width="5"></path></g><g transform="translate(462 172)"><path d="M0 -18L15.6 -9L15.6 9L0 18L-15.6 9L-15.6 -9Z" stroke="#304868" fill="none" stroke-width="5"></path></g><g transform="translate(663 536)"><path d="M0 -35L30.3 -17.5L30.3 17.5L0 35L-30.3 17.5L-30.3 -17.5Z" stroke="#304868" fill="none" stroke-width="5"></path></g><g transform="translate(634 291)"><path d="M0 -23L19.9 -11.5L19.9 11.5L0 23L-19.9 11.5L-19.9 -11.5Z" stroke="#304868" fill="none" stroke-width="5"></path></g></g></svg>